<svg id="Group_97" data-name="Group 97" xmlns="http://www.w3.org/2000/svg" xmlns:xlink="http://www.w3.org/1999/xlink" width="22.263" height="30.04" viewBox="0 0 22.263 30.04">
  <defs>
    <clipPath id="clip-path">
      <rect id="Rectangle_28" data-name="Rectangle 28" width="22.263" height="30.04" fill="#9fd2ae"/>
    </clipPath>
  </defs>
  <g id="Group_26" data-name="Group 26" clip-path="url(#clip-path)">
    <path id="Path_77" data-name="Path 77" d="M15.707,6.4c.784,0,1.569,0,2.353,0A1.189,1.189,0,0,1,19.316,7.6q.028,2.054,0,4.11a1.193,1.193,0,0,1-1.281,1.214c-1.558,0-3.116,0-4.674,0-.419,0-.42,0-.42.433q0,2.243,0,4.486a1.287,1.287,0,0,1-1.477,1.477q-1.851,0-3.7,0a1.25,1.25,0,0,1-1.37-1.362c-.006-1.548-.011-3.1,0-4.643,0-.322-.1-.4-.408-.4-1.548.016-3.1.009-4.643.006a1.221,1.221,0,0,1-1.337-1.32q-.013-1.945,0-3.89A1.218,1.218,0,0,1,1.342,6.4c1.527,0,3.054,0,4.58,0,.464,0,.465,0,.465-.451q0-2.228,0-4.455C6.391.455,6.847,0,7.881,0q1.851,0,3.7,0a1.242,1.242,0,0,1,1.353,1.345c.008,1.558.011,3.116,0,4.675,0,.3.088.392.389.384.794-.02,1.589-.007,2.384-.006" transform="translate(0 0.001)" fill="#9fd2ae"/>
    <path id="Path_78" data-name="Path 78" d="M136.593,126.289a3.614,3.614,0,0,1,.184.953,20.591,20.591,0,0,1,.166,4.783,7.431,7.431,0,0,1-4.2,6.33c-1.227.634-2.511,1.142-3.749,1.753a9.834,9.834,0,0,0-3.539,2.689,8.418,8.418,0,0,0-1.232,2.246c-.036.095-.038.248-.142.26-.132.016-.156-.147-.21-.24a8.938,8.938,0,0,1-1.434-4.706,6.78,6.78,0,0,1,.179-1.3.392.392,0,0,1,.455-.357c1.066.011,2.134-.033,3.2.012a2.333,2.333,0,0,0,2.449-2.459c-.039-1.1-.008-2.2-.007-3.293,0-.5.138-.645.655-.647,1.1-.005,2.2-.04,3.293.006a2.321,2.321,0,0,0,2.451-2.456c-.017-.491,0-.983,0-1.474a.518.518,0,0,1,.132-.4,7.7,7.7,0,0,0,1.262-1.633c.013-.023.047-.034.089-.064" transform="translate(-114.751 -118.361)" fill="#9fd2ae"/>
    <path id="Path_79" data-name="Path 79" d="M179.418,329.944a4.336,4.336,0,0,1,.175,1.069,8.123,8.123,0,0,1-.046,2.187,3.549,3.549,0,0,1-1.877,2.6c-.55.3-1.125.552-1.7.805a4.484,4.484,0,0,0-2.64,2.606c-.006.016-.03.026-.076.062a4.8,4.8,0,0,1-.722-1.739,3.144,3.144,0,0,1,.9-2.84,12.9,12.9,0,0,1,2.717-2.054c.414-.264.833-.521,1.242-.793a6.233,6.233,0,0,0,2.02-1.9" transform="translate(-161.647 -309.231)" fill="#9fd2ae"/>
  </g>
</svg>
