<svg xmlns="http://www.w3.org/2000/svg" width="18.09" height="18.09" viewBox="0 0 18.09 18.09">
  <path id="Icon_ionic-md-call" data-name="Icon ionic-md-call" d="M21.585,17.063a11.8,11.8,0,0,1-3.568-.553.94.94,0,0,0-1,.251L14.8,18.972a15.113,15.113,0,0,1-6.633-6.633l2.211-2.211a1.047,1.047,0,0,0,.251-1.005,10.93,10.93,0,0,1-.6-3.618A1.008,1.008,0,0,0,9.023,4.5H5.505A1.008,1.008,0,0,0,4.5,5.505,17.071,17.071,0,0,0,21.585,22.59a1.008,1.008,0,0,0,1.005-1.005V18.068A1.008,1.008,0,0,0,21.585,17.063Z" transform="translate(-4.5 -4.5)" fill="#00942c"/>
</svg>
