<svg id="Group_95" data-name="Group 95" xmlns="http://www.w3.org/2000/svg" xmlns:xlink="http://www.w3.org/1999/xlink" width="26.462" height="29.525" viewBox="0 0 26.462 29.525">
  <defs>
    <clipPath id="clip-path">
      <rect id="Rectangle_29" data-name="Rectangle 29" width="26.462" height="29.525" fill="#9fd2ae"/>
    </clipPath>
  </defs>
  <g id="Group_28" data-name="Group 28" clip-path="url(#clip-path)">
    <path id="Path_80" data-name="Path 80" d="M23.628,350.057a7.636,7.636,0,0,0-2.407-1.551c.233.647.245,1.251.952,1.594a1.8,1.8,0,0,1,.73,2.157,1.959,1.959,0,0,1-3.753-.039,1.946,1.946,0,0,1,.8-2.19c.212-.134.448-.23.667-.34-.417-1.537-.879-1.92-2.057-1.817a2.722,2.722,0,0,1-1.754,2.044,8.467,8.467,0,0,1-6.34.323A3.242,3.242,0,0,1,7.9,347.849c-.844-.125-1.241.414-1.6,1-.434.7-.313.99.343,1.486a8.974,8.974,0,0,1,1.444,1.416,6.211,6.211,0,0,1,.854,2.773,8.969,8.969,0,0,1,.1,2.213,1.168,1.168,0,0,1-.63,1.089,2.8,2.8,0,0,1-1.623.3.524.524,0,0,1-.533-.562.513.513,0,0,1,.529-.519,3.484,3.484,0,0,1,.817,0c.419.071.517-.125.565-.491A5.7,5.7,0,0,0,6.63,351.93a1.3,1.3,0,0,0-2.255.024,7.944,7.944,0,0,0-1.184,1.694,5.043,5.043,0,0,0-.34,3.115c.023.119.258.263.407.28a8.6,8.6,0,0,1,.992.014.764.764,0,0,1,.49.476.668.668,0,0,1-.346.543,1.9,1.9,0,0,1-2.521-1.621,7.7,7.7,0,0,1,.571-3.785,9.8,9.8,0,0,1,1.1-1.473,15.3,15.3,0,0,0,1.125-1.214,4.758,4.758,0,0,0,.735-1.538c-.167.069-.3.119-.432.18a8.729,8.729,0,0,0-4.929,8.737,3.649,3.649,0,0,0,2.874,3.457,15.068,15.068,0,0,0,3.411.458c4.611.05,9.224.032,13.835.012a11.119,11.119,0,0,0,3.631-.528,3.549,3.549,0,0,0,2.554-2.971,8.462,8.462,0,0,0-2.724-7.733m-3.5,8.132c-1.1.351-2.491.016-3.3.974a1.958,1.958,0,0,0-.316.524,4.849,4.849,0,0,1,.111-.915,5.046,5.046,0,0,1,2.578-3.432,4.8,4.8,0,0,1,3.534-.177c-.84,2.089-1.84,2.783-2.6,3.026" transform="translate(0.001 -331.783)" fill="#9fd2ae"/>
    <path id="Path_81" data-name="Path 81" d="M145.035,14.777a5.17,5.17,0,0,0,4.348,1.977,5.566,5.566,0,0,0,4.089-2.434,12.425,12.425,0,0,0,2.282-7.306c-.01-.173-.021-.446-.044-.717A6.884,6.884,0,0,0,149.855.064,6.666,6.666,0,0,0,142.9,4.319a8.389,8.389,0,0,0-.4,4.339,11.006,11.006,0,0,0,2.533,6.119m-.932-6.9c.026-.844.062-1.688.129-2.53a1.562,1.562,0,0,1,.258-.622.54.54,0,0,1,.789-.249,9.053,9.053,0,0,0,7.54.007c.433-.19.709-.061.841.293a5.984,5.984,0,0,1,.387,1.57c.064.78.016,1.569.016,2.344l.8-.352c-.092.562-.151,1.032-.249,1.493a9.189,9.189,0,0,1-1.919,4.069,4.415,4.415,0,0,1-6.844.416,8.677,8.677,0,0,1-1.309-1.732,9.843,9.843,0,0,1-1.253-4.231l.892.386a7.054,7.054,0,0,1-.078-.863" transform="translate(-135.823 -0.001)" fill="#9fd2ae"/>
    <path id="Path_82" data-name="Path 82" d="M434.683,410.338a.977.977,0,1,0,.984-.983.983.983,0,0,0-.984.983" transform="translate(-414.628 -390.468)" fill="#9fd2ae"/>
  </g>
</svg>
