<svg xmlns="http://www.w3.org/2000/svg" width="27.431" height="16.5" viewBox="0 0 27.431 16.5">
  <g id="Group_5" data-name="Group 5" transform="translate(0)" opacity="0.5">
    <path id="Path_26" data-name="Path 26" d="M432.3,343.566c0-.365,0-.73,0-1.1a2.167,2.167,0,0,1,1.162-1.746c.254-.182.492-.032.662.19.2.265.441.582.165.885-.893.979-.31,2.131-.42,3.2-.017.168.155.224.3.272a.941.941,0,0,1,.683,1.048c-.023.729-.013,1.46,0,2.19,0,.346-.139.506-.491.484a3.241,3.241,0,0,0-3.179,1.527,1.043,1.043,0,0,1-.369.317c-.546.307-.95.138-1.086-.465a4.351,4.351,0,0,0-2.65-3.321,4.423,4.423,0,0,0-4.806.773c-.145.121-.268.384-.482.283s-.093-.362-.1-.553a4.119,4.119,0,0,1,.25-1.34,11.722,11.722,0,0,0,.507-4.105c-.023-.455-.013-.913,0-1.369a1.578,1.578,0,0,1,1.617-1.709c.91-.05,1.826-.037,2.736,0a1.7,1.7,0,0,1,1.586,1.155,9.1,9.1,0,0,1,.665,3.253,3.331,3.331,0,0,0,.112,1.029,1.013,1.013,0,0,0,.955.772c.583.026,1.168.007,1.752.014.3,0,.436-.13.432-.429-.006-.42,0-.84,0-1.26Zm-7.65-.994c.022,1.576-.207,1.349,1.359,1.37.164,0,.328,0,.492,0,.339.007.462-.156.4-.482-.111-.554-.226-1.108-.325-1.664a.64.64,0,0,0-.716-.585c-1.207-.035-1.207-.047-1.207,1.144Z" transform="translate(-409.366 -338.999)" fill="#00942c"/>
    <path id="Path_27" data-name="Path 27" d="M315.186,370.035c1.514,0,3.027,0,4.541,0,.742,0,.847.11.848.864,0,2.1-.01,4.194.009,6.291,0,.49-.145.656-.652.673a2.464,2.464,0,0,1-1.979-.775,3.739,3.739,0,0,0-5.578.261,1.581,1.581,0,0,1-1.575.466.313.313,0,0,1-.309-.326c.02-.437-.249-.55-.6-.616a.531.531,0,0,1-.448-.6.541.541,0,0,1,.48-.571c.239-.052.529-.05.529-.424s-.263-.375-.521-.412a.514.514,0,0,1-.488-.557c0-.307.132-.58.444-.6.579-.035.607-.393.594-.826-.011-.364,0-.729.007-1.094.007-.281-.052-.487-.378-.563-.347-.082-.432-.363-.387-.685a.561.561,0,0,1,.655-.512c.036,0,.073,0,.109,0h4.7m-2.543,2.738c.877,0,.877,0,.878-.732,0-.779,0-.78-.779-.781-.2,0-.4,0-.6.011a.319.319,0,0,0-.3.186.857.857,0,0,0,.8,1.316m3.076-1.491c-.2,0-.4,0-.6,0a.313.313,0,0,0-.339.28c-.191.836.009,1.109.839,1.11h.274c.692-.005.706-.019.706-.7s0-.691-.877-.685m2.886-.023c-.754,0-.765.008-.767.685,0,.717.008.727.723.729.754,0,.764-.007.766-.685,0-.717-.007-.727-.723-.728" transform="translate(-309.438 -366.634)" fill="#00942c"/>
    <path id="Path_28" data-name="Path 28" d="M418.776,418.063a3.922,3.922,0,0,1,3.9-4.018,3.981,3.981,0,0,1,3.992,4.011,4.044,4.044,0,0,1-3.93,3.984,3.979,3.979,0,0,1-3.963-3.976m3.874,1.477a1.478,1.478,0,0,0,1.588-1.45,1.534,1.534,0,0,0-1.518-1.6,1.488,1.488,0,0,0-1.51,1.474,1.437,1.437,0,0,0,1.441,1.577" transform="translate(-406.798 -405.823)" fill="#00942c"/>
    <path id="Path_32" data-name="Path 32" d="M336,436.585a3.262,3.262,0,1,1,3.368-3.167A3.288,3.288,0,0,1,336,436.585m.084-1.8a1.446,1.446,0,0,0,1.507-1.462,1.529,1.529,0,0,0-1.513-1.483,1.5,1.5,0,0,0-1.526,1.458,1.439,1.439,0,0,0,1.532,1.486" transform="translate(-330.222 -420.086)" fill="#00942c"/>
    <path id="Path_33" data-name="Path 33" d="M511.578,435.047a2.777,2.777,0,0,1,2.81,2.819,2.861,2.861,0,0,1-2.819,2.783,3.018,3.018,0,0,1-2.772-2.814,2.951,2.951,0,0,1,2.78-2.787m.045,3.606a.868.868,0,0,0,.868-.809.841.841,0,1,0-.868.809" transform="translate(-486.958 -424.525)" fill="#00942c"/>
    <path id="Path_34" data-name="Path 34" d="M323.143,341.967c-1.422,0-2.844,0-4.266,0-.189,0-.439.078-.537-.154a.641.641,0,0,1,.152-.612,1.144,1.144,0,0,1,1.215-.437.621.621,0,0,0,.7-.277,1.066,1.066,0,0,1,1.14-.475.518.518,0,0,0,.56-.216,1.181,1.181,0,0,1,2.022-.009.554.554,0,0,0,.609.223,1.01,1.01,0,0,1,1.094.453.654.654,0,0,0,.74.293,1.133,1.133,0,0,1,1.26.564c.246.435.128.645-.367.648-1.44.007-2.88,0-4.32,0" transform="translate(-317.336 -339.194)" fill="#00942c"/>
    <path id="Path_39" data-name="Path 39" d="M311.771,447.931a1.227,1.227,0,0,1,1.553-1.249c.193.043.225.167.217.319-.033.618-.07,1.237-.113,1.854-.022.317-.267.362-.513.372-.394.016-.827.111-1.027-.391a2.139,2.139,0,0,1-.118-.905" transform="translate(-311.511 -434.851)" fill="#00942c"/>
    <path id="Path_40" data-name="Path 40" d="M399.4,448.341c0,.145,0,.291,0,.437-.005.747-.057.8-.815.791-.665-.005-.722-.059-.728-.707,0-.418.008-.837,0-1.255-.009-.36.143-.521.512-.545,1-.066,1.033-.034,1.033,1.28" transform="translate(-388.168 -435.205)" fill="#00942c"/>
  </g>
</svg>
