<svg id="Capa_1" enable-background="new 0 0 512 512" height="512" viewBox="0 0 512 512" width="512" xmlns="http://www.w3.org/2000/svg"><g><path d="m511.491 364.936c-2.325-13.496-11.966-24.202-24.729-28.074-1.692-7.315-5.58-13.944-11.073-19.003 5.18-2.955 11.515-3.576 17.421-1.399.912.331 1.841.753 2.759 1.254 3.635 1.982 8.192.645 10.176-2.992 1.983-3.636.645-8.191-2.992-10.176-1.579-.861-3.201-1.597-4.788-2.173-12.854-4.738-26.939-1.752-36.667 7.354-7.211-2.22-14.901-2.149-22.006.077.039-5.956 2.66-11.737 7.469-15.741.798-.665 1.629-1.261 2.471-1.771 3.541-2.149 4.67-6.762 2.521-10.303s-6.764-4.667-10.303-2.521c-1.477.896-2.92 1.929-4.289 3.068-10.52 8.761-14.974 22.46-11.954 35.447-.91.844-1.789 1.72-2.609 2.65l-4.423-3.901c-3.3-2.91-7.54-4.513-11.939-4.513h-15.393v-10.029h2.101c4.518 0 8.922-1.852 12.085-5.08l17.193-17.557c10.157-10.369 10.361-26.58 1.094-37.228l-4.356-5.005c5.435-9.017 8.292-19.254 8.292-29.951 0-32.119-26.131-58.25-58.25-58.25-7.851 0-15.621 1.595-22.79 4.637l-.323-.371c-5.387-6.189-13.183-9.739-21.389-9.739h-136.61l-22.353-26.452c-5.678-6.707-13.972-10.555-22.755-10.555h-93.784c-.874-6.044-6.074-10.707-12.356-10.707h-24.442c-6.893 0-12.5 5.607-12.5 12.5v48.425c0 6.893 5.607 12.5 12.5 12.5h24.441c6.282 0 11.482-4.663 12.356-10.707h21.511c-5.677 6.979-9.089 15.871-9.089 25.547v104.235c0 7.586 6.171 13.758 13.757 13.758h15.3v10.268c0 4.143 3.357 7.5 7.5 7.5s7.5-3.357 7.5-7.5v-10.268h270.365v75.54h-18.659c1.421-4.803 2.196-9.881 2.196-15.139 0-29.487-23.989-53.477-53.476-53.477s-53.477 23.989-53.477 53.477c0 5.258.775 10.335 2.196 15.139h-25.785c1.421-4.803 2.196-9.881 2.196-15.139 0-29.487-23.989-53.477-53.476-53.477s-53.477 23.989-53.477 53.477c0 5.258.775 10.335 2.196 15.139h-2.198c-10.256 0-18.6-8.349-18.6-18.61v-11.66c0-4.143-3.357-7.5-7.5-7.5s-7.5 3.357-7.5 7.5v11.66c0 18.533 15.072 33.61 33.6 33.61h9.333c9.642 14.078 25.831 23.337 44.146 23.337 18.314 0 34.503-9.259 44.145-23.337h40.054c9.642 14.078 25.831 23.337 44.146 23.337 18.314 0 34.503-9.259 44.145-23.337h25.794v8.015c0 8.448 6.874 15.322 15.322 15.322h94.233c5.938 0 10.768-4.83 10.768-10.767v-8.62c0-7.093-3.051-13.852-8.371-18.544l-9.655-8.516c4.011-4.533 6.954-10.055 8.388-16.464 5.13 3.007 8.818 8.153 9.873 14.281.179 1.075.28 2.111.302 3.078.09 4.085 3.43 7.334 7.495 7.334.056 0 .112-.001.169-.002 4.141-.092 7.424-3.522 7.332-7.664-.035-1.674-.203-3.424-.505-5.247zm-142.191-200.816c23.848 0 43.25 19.402 43.25 43.25 0 6.25-1.316 12.287-3.838 17.837l-51.634-59.31c3.951-1.159 8.067-1.777 12.222-1.777zm-214.918-37.239 14.168 16.768h-119.109v-22.009h93.639c4.363 0 8.484 1.912 11.302 5.241zm-139.382 27.476v-43.425h19.441v43.425zm61.72 132.833v-25.39h229.591c2.46 0 4.858 1.007 6.581 2.764l22.194 22.627c-15.109-.001-243.413-.001-258.366-.001zm279.378 0-32.496-33.13c-4.524-4.614-10.827-7.261-17.291-7.261h-229.591v-18.304h107.12c4.143 0 7.5-3.357 7.5-7.5s-3.357-7.5-7.5-7.5h-107.12v-29.299c0-14.037 11.379-25.505 25.396-25.547 34.1-.102 141.896-.004 183.877-.004l-35.32 51.655c-1.367 2-3.631 3.194-6.055 3.194h-25.778c-4.143 0-7.5 3.357-7.5 7.5s3.357 7.5 7.5 7.5h25.778c7.38 0 14.271-3.637 18.438-9.728l41.109-60.122h20.633c3.865 0 7.537 1.672 10.075 4.588l77.427 88.939c4.202 4.828 4.112 12.182-.495 16.884l-17.194 17.557c-.358.366-.857.576-1.368.576h-37.145zm-178.24 113.877c-21.216 0-38.477-17.26-38.477-38.476s17.261-38.477 38.477-38.477 38.476 17.261 38.476 38.477-17.26 38.476-38.476 38.476zm128.345 0c-21.216 0-38.477-17.26-38.477-38.476s17.261-38.477 38.477-38.477 38.476 17.261 38.476 38.477-17.26 38.476-38.476 38.476zm175.262-4.386v4.387h-90.001c-.178 0-.322-.145-.322-.322v-73.526h15.393c.743 0 1.46.271 2.018.763l69.62 61.404c2.092 1.845 3.292 4.504 3.292 7.294zm-47.32-66.127c1.234-1.4 2.648-2.645 4.21-3.696.009-.006.017-.012.026-.019 17.113-11.917 40.415 5.659 32.981 25.888-.961 2.606-2.379 4.954-4.17 6.975z"/><path d="m306.203 338.926c-13.05 0-23.666 10.616-23.666 23.666 0 13.049 10.616 23.665 23.666 23.665 13.049 0 23.665-10.616 23.665-23.665 0-13.05-10.616-23.666-23.665-23.666zm0 32.331c-4.778 0-8.666-3.887-8.666-8.665s3.888-8.666 8.666-8.666 8.665 3.888 8.665 8.666-3.887 8.665-8.665 8.665z"/><path d="m177.858 338.926c-13.05 0-23.666 10.616-23.666 23.666 0 13.049 10.616 23.665 23.666 23.665 13.049 0 23.665-10.616 23.665-23.665 0-13.05-10.616-23.666-23.665-23.666zm0 32.331c-4.778 0-8.666-3.887-8.666-8.665s3.888-8.666 8.666-8.666 8.665 3.888 8.665 8.666-3.886 8.665-8.665 8.665z"/></g></svg>