<svg id="Group_98" data-name="Group 98" xmlns="http://www.w3.org/2000/svg" xmlns:xlink="http://www.w3.org/1999/xlink" width="31.496" height="30.04" viewBox="0 0 31.496 30.04">
  <defs>
    <clipPath id="clip-path">
      <rect id="Rectangle_5" data-name="Rectangle 5" width="31.496" height="30.04" fill="#9fd2ae"/>
    </clipPath>
  </defs>
  <g id="Group_3" data-name="Group 3" clip-path="url(#clip-path)">
    <path id="Path_5" data-name="Path 5" d="M58.142,105.5c2.533-.122,5.06.166,7.592.076.234-.008.5.01.531.272a2.5,2.5,0,0,1-.25,2.058,1.127,1.127,0,0,1-.229.237A4.253,4.253,0,0,0,64,112.5c.136,1.53.008,3.082.035,4.624.012.683-.275.913-.934.928-1.748.039-1.748.06-1.748-1.648q0-3.057,0-6.114c0-.384.043-.849-.562-.769-.476.063-.375.481-.376.791-.009,2.176,0,4.351-.006,6.527,0,1.219,0,1.219-1.255,1.222-1.377,0-2.754,0-4.131.017-.658.008-.909-.2-.845-.936.195-2.253-.143-4.5-.125-6.762a2.089,2.089,0,0,0-.911-1.512,2.932,2.932,0,0,1-1.187-2.258c0-.677.2-1.009.907-1.061,1.762-.131,3.524-.014,5.285-.05" transform="translate(-43.365 -88.036)" fill="#9fd2ae"/>
    <path id="Path_6" data-name="Path 6" d="M65.768,72.194c0-1.368.261-1.635,1.647-1.64q3.18-.013,6.361,0A1.764,1.764,0,0,1,75.51,73.13c-.158.406-.5.381-.825.385-.362,0-.739.014-.813-.487-.035-.235-.031-.579-.377-.516-.314.057-.224.4-.23.632-.014.606-.02,1.212-.005,1.817.012.509-.183.762-.723.756-1.294-.016-2.588-.014-3.882,0-.5.005-.69-.239-.691-.706q0-1.074-.024-2.147c0-.136-.031-.294-.193-.328s-.251.1-.259.242c-.043.756-.556.779-1.118.726-.7-.066-.569-.613-.6-1.062-.006-.082,0-.165,0-.248" transform="translate(-54.897 -58.888)" fill="#9fd2ae"/>
    <path id="Path_7" data-name="Path 7" d="M177.961,87.706a1.148,1.148,0,1,1,.013,2.3,1.136,1.136,0,0,1-1.109-1.1,1.122,1.122,0,0,1,1.1-1.192" transform="translate(-147.634 -73.211)" fill="#9fd2ae"/>
    <path id="Path_8" data-name="Path 8" d="M134.225,12.733a1.144,1.144,0,0,1-2.288.017,1.131,1.131,0,0,1,1.125-1.163,1.194,1.194,0,0,1,1.163,1.146" transform="translate(-110.132 -9.672)" fill="#9fd2ae"/>
    <path id="Path_9" data-name="Path 9" d="M167.017,44.824a1.1,1.1,0,1,1-2.195-.1,1.1,1.1,0,0,1,2.195.1" transform="translate(-137.581 -36.465)" fill="#9fd2ae"/>
    <path id="Path_10" data-name="Path 10" d="M2.292,90.564a1.108,1.108,0,0,1-1.17,1.1A1.025,1.025,0,0,1,0,90.619a1.063,1.063,0,0,1,1.1-1.147,1.115,1.115,0,0,1,1.183,1.092" transform="translate(0 -74.685)" fill="#9fd2ae"/>
    <path id="Path_11" data-name="Path 11" d="M88.962,2.269a1.06,1.06,0,0,1-1.128-1.06A1.111,1.111,0,0,1,88.917,0a1.164,1.164,0,0,1,1.149,1.165,1.1,1.1,0,0,1-1.1,1.1" transform="translate(-73.317 0)" fill="#9fd2ae"/>
    <path id="Path_12" data-name="Path 12" d="M13.742,46.012a1.122,1.122,0,1,1-2.244-.037,1.164,1.164,0,0,1,1.094-1.132,1.183,1.183,0,0,1,1.15,1.169" transform="translate(-9.598 -37.432)" fill="#9fd2ae"/>
    <path id="Path_13" data-name="Path 13" d="M44.857,12.481a1.05,1.05,0,0,1,1.137,1.031,1.128,1.128,0,0,1-1.066,1.214,1.1,1.1,0,0,1-1.133-1.139,1.046,1.046,0,0,1,1.062-1.106" transform="translate(-36.557 -10.418)" fill="#9fd2ae"/>
    <path id="Path_14" data-name="Path 14" d="M89.421,20.085a.961.961,0,0,1-.949-1.016.993.993,0,0,1,1.986.031c-.009.609-.41.926-1.037.985" transform="translate(-73.85 -15.104)" fill="#9fd2ae"/>
    <path id="Path_15" data-name="Path 15" d="M161.624,90.658a.978.978,0,0,1-.993-.988.9.9,0,0,1,.967-.994.935.935,0,0,1,1,.972c.029.631-.388.917-.979,1.01" transform="translate(-134.084 -74.021)" fill="#9fd2ae"/>
    <path id="Path_16" data-name="Path 16" d="M150.807,54.015a.894.894,0,0,1,.992-.924,1,1,0,0,1-.065,1.989c-.608-.016-.922-.41-.927-1.065" transform="translate(-125.884 -44.315)" fill="#9fd2ae"/>
    <path id="Path_17" data-name="Path 17" d="M19.008,92.216a.983.983,0,0,1,.043-1.965.907.907,0,0,1,.957,1,.936.936,0,0,1-1,.964" transform="translate(-15.065 -75.335)" fill="#9fd2ae"/>
    <path id="Path_18" data-name="Path 18" d="M28.167,54.47c.632.055,1,.362,1,.982a.909.909,0,0,1-.972.984.9.9,0,0,1-.979-.973.938.938,0,0,1,.946-.993" transform="translate(-22.722 -45.468)" fill="#9fd2ae"/>
    <path id="Path_19" data-name="Path 19" d="M125.333,27.462a.856.856,0,0,1,.886.947.891.891,0,0,1-.969.992.926.926,0,0,1-.984-1,.94.94,0,0,1,1.067-.939" transform="translate(-103.728 -22.923)" fill="#9fd2ae"/>
    <path id="Path_20" data-name="Path 20" d="M53.949,29.97a.871.871,0,0,1-.9-.955.92.92,0,0,1,.913-.979,1.015,1.015,0,0,1,1.059,1.022.965.965,0,0,1-1.07.911" transform="translate(-44.28 -23.4)" fill="#9fd2ae"/>
    <path id="Path_21" data-name="Path 21" d="M63.225,45.468a.766.766,0,0,1-.8-.833.781.781,0,0,1,.819-.852.794.794,0,0,1,.877.878.8.8,0,0,1-.892.806" transform="translate(-52.106 -36.548)" fill="#9fd2ae"/>
    <path id="Path_22" data-name="Path 22" d="M117.474,42.8a.841.841,0,0,1,.859.806.8.8,0,0,1-.825.918.75.75,0,0,1-.856-.782.838.838,0,0,1,.821-.943" transform="translate(-97.372 -35.728)" fill="#9fd2ae"/>
  </g>
</svg>
