<svg id="Capa_1" enable-background="new 0 0 512 512" height="512" viewBox="0 0 512 512" width="512" xmlns="http://www.w3.org/2000/svg"><g><path d="m491.053 462.157h-16.747c-5.804 0-11.232-2.856-14.167-7.455-6.609-10.359-17.087-17.245-28.909-19.31v-11.44h2.574c24.183 0 43.856-19.674 43.856-43.856v-13.661c0-7.543-6.599-13.451-14.136-12.531-17.101 2.102-31.525 12.132-39.796 26.125-8.271-13.992-22.696-24.023-39.797-26.125-7.534-.916-14.136 4.983-14.136 12.531v13.661c0 24.183 19.674 43.856 43.856 43.856h2.577v11.44c-11.824 2.065-22.303 8.95-28.912 19.31-2.935 4.599-8.363 7.455-14.167 7.455h-66.572c-5.805 0-11.233-2.856-14.167-7.455-6.609-10.359-17.087-17.245-28.911-19.31v-11.44h2.576c24.183 0 43.856-19.674 43.856-43.856v-13.661c0-7.553-6.614-13.455-14.136-12.531-17.101 2.102-31.526 12.132-39.797 26.125-8.271-13.992-22.695-24.023-39.796-26.125-7.534-.917-14.137 4.983-14.137 12.531v13.661c0 24.183 19.674 43.856 43.856 43.856h2.576v11.44c-11.824 2.065-22.302 8.951-28.91 19.31-2.935 4.599-8.363 7.455-14.168 7.455h-66.569c-5.804 0-11.232-2.856-14.167-7.455-6.609-10.36-17.088-17.245-28.912-19.31v-11.44h2.577c24.183 0 43.856-19.674 43.856-43.856v-13.661c0-7.543-6.599-13.451-14.136-12.531-17.101 2.102-31.526 12.132-39.797 26.125-8.271-13.993-22.695-24.024-39.795-26.126-7.534-.916-14.136 4.983-14.136 12.531v13.661c0 24.183 19.674 43.856 43.856 43.856h2.574v11.44c-11.823 2.065-22.3 8.95-28.909 19.31-2.935 4.599-8.363 7.455-14.167 7.455h-16.747c-9.308 0-16.881 7.572-16.881 16.881v16.081c0 9.309 7.573 16.881 16.881 16.881h163.083c4.143 0 7.5-3.357 7.5-7.5s-3.357-7.5-7.5-7.5h-163.083c-1.037 0-1.881-.844-1.881-1.881v-16.081c0-1.037.844-1.881 1.881-1.881h16.747c11.041 0 21.063-5.378 26.812-14.387 5.211-8.166 14.095-13.042 23.765-13.042 9.672 0 18.557 4.876 23.768 13.042 5.748 9.009 15.771 14.387 26.812 14.387h66.572c11.041 0 21.064-5.378 26.813-14.387 5.21-8.167 14.094-13.042 23.765-13.042s18.555 4.875 23.766 13.042c5.748 9.009 15.771 14.387 26.812 14.387h66.572c11.041 0 21.063-5.378 26.812-14.387 5.211-8.166 14.096-13.042 23.768-13.042 9.67 0 18.554 4.876 23.765 13.042 5.748 9.009 15.771 14.387 26.812 14.387h16.747c1.037 0 1.881.844 1.881 1.881v16.081c0 1.037-.844 1.881-1.881 1.881h-271.896c-4.143 0-7.5 3.357-7.5 7.5s3.357 7.5 7.5 7.5h271.894c9.308 0 16.881-7.572 16.881-16.881v-16.081c0-9.308-7.574-16.88-16.881-16.88zm-363.849-92.938v10.877c0 15.911-12.945 28.856-28.856 28.856h-2.576v-1.521c-.001-18.721 13.332-34.691 31.432-38.212zm-77.864 10.877v-10.877c18.1 3.521 31.432 19.491 31.432 38.212v1.521h-2.575c-15.912 0-28.857-12.945-28.857-28.856zm245.593-10.877v10.877c0 15.911-12.945 28.856-28.856 28.856h-2.577v-1.521c0-18.719 13.333-34.689 31.433-38.212zm-77.866 10.877v-10.877c18.101 3.521 31.433 19.491 31.433 38.212v1.521h-2.576c-15.911 0-28.857-12.945-28.857-28.856zm245.593-10.877v10.877c0 15.911-12.945 28.856-28.856 28.856h-2.575v-1.521c0-18.721 13.331-34.691 31.431-38.212zm-77.864 10.877v-10.877c18.101 3.521 31.433 19.491 31.433 38.212v1.521h-2.576c-15.912 0-28.857-12.945-28.857-28.856z"/><path d="m71.521 94.612h99.68c7.164 0 12.992-5.828 12.992-12.992v-18.41h21.177v35.706c0 6.893 5.607 12.5 12.5 12.5h12.106l-17.822 31.762c-2.56 4.562-2.51 9.98.134 14.495 2.644 4.514 7.344 7.209 12.575 7.209h23.637v10.607c0 4.143 3.357 7.5 7.5 7.5s7.5-3.357 7.5-7.5v-10.607h23.638c5.231 0 9.932-2.695 12.575-7.209 2.644-4.515 2.693-9.933.134-14.495l-17.822-31.762h12.106c6.893 0 12.5-5.607 12.5-12.5v-35.706h21.177v18.41c0 7.164 5.828 12.992 12.992 12.992h99.68c7.164 0 12.992-5.828 12.992-12.992v-51.824c0-7.164-5.828-12.992-12.992-12.992h-99.68c-7.164 0-12.992 5.828-12.992 12.992v18.414h-21.177v-35.71c0-6.893-5.607-12.5-12.5-12.5h-20.631c-4.143 0-7.5 3.357-7.5 7.5s3.357 7.5 7.5 7.5h18.131v81.416h-71.262v-81.416h18.131c4.143 0 7.5-3.357 7.5-7.5s-3.357-7.5-7.5-7.5h-20.631c-6.893 0-12.5 5.607-12.5 12.5v35.71h-21.177v-18.414c0-7.164-5.828-12.992-12.992-12.992h-99.68c-7.164 0-12.992 5.828-12.992 12.992v51.824c0 7.164 5.828 12.992 12.993 12.992zm271.287-31.402h40.332v16.402h-40.332zm55.332 16.402v-16.402h40.332v16.402zm40.332-31.402h-40.332v-16.406h40.332zm-95.664-16.406h40.332v16.406h-40.332zm-77.984 79.612 21.584 38.466h-60.816l21.584-38.466zm-191.296-48.206h40.332v16.402h-40.332zm95.664 16.402h-40.332v-16.402h40.332zm0-31.402h-40.332v-16.406h40.332zm-55.332-16.406v16.406h-40.332v-16.406z"/><path d="m96.33 286.03c-3.026-.624-6.1.754-7.7 3.189-1.693 2.567-1.687 5.773 0 8.33 1.664 2.532 4.804 3.786 7.7 3.18 3.419-.641 6.04-3.729 6.04-7.35 0-3.485-2.531-6.691-6.04-7.349z"/><path d="m105.899 274.27c2.71 0 5.33-1.479 6.67-4.05 1.91-3.68.471-8.2-3.199-10.11-3.681-1.909-8.206-.482-10.11 3.195-1.906 3.682-.479 8.205 3.19 10.115 1.11.57 2.29.85 3.449.85z"/><path d="m159.17 196.95c-3.46 2.279-4.42 6.92-2.15 10.39 1.45 2.19 3.84 3.38 6.28 3.38 1.41 0 2.84-.4 4.11-1.24 3.46-2.27 4.42-6.92 2.149-10.38-2.279-3.46-6.929-4.43-10.389-2.15z"/><path d="m115.359 237.88c-2.51 3.3-1.869 8 1.431 10.51 1.359 1.03 2.95 1.53 4.529 1.53 2.271 0 4.5-1.021 5.98-2.97 2.51-3.301 1.86-8-1.44-10.511-3.29-2.5-8-1.859-10.5 1.441z"/><path d="m135.52 215.55c-3.02 2.83-3.189 7.57-.359 10.6 1.479 1.58 3.479 2.381 5.479 2.381 1.84 0 3.68-.671 5.12-2.021 3.03-2.83 3.19-7.57.36-10.6-2.82-3.03-7.57-3.19-10.6-.36z"/><path d="m194.89 185.34c-2.688-4.027-8.294-4.395-11.54-1.15-2.049 2.055-2.835 5.231-1.62 8.181 1.292 3.213 4.836 5.209 8.391 4.479 1.77-.332 3.544-1.4 4.77-3.189 1.565-2.319 1.774-5.693-.001-8.321z"/><path d="m324.81 182.149c-3.877-.805-7.923 1.646-8.819 5.881-.801 4.315 2.03 8.098 5.89 8.819 2.519.517 5.077-.345 6.77-2.05 1.286-1.246 2.2-3.226 2.2-5.3-.001-3.465-2.469-6.674-6.041-7.35z"/><path d="m352.814 196.939c-3.458-2.273-8.114-1.31-10.385 2.15-2.28 3.46-1.32 8.11 2.15 10.39 1.27.83 2.689 1.23 4.109 1.23 2.44 0 4.83-1.19 6.271-3.38 2.281-3.459 1.319-8.113-2.145-10.39z"/><path d="m412.74 263.29c-1.91-3.681-6.44-5.11-10.12-3.2-3.67 1.91-5.101 6.44-3.19 10.12 1.896 3.664 6.434 5.11 10.11 3.189 3.67-1.909 5.109-6.429 3.2-10.109z"/><path d="m386.13 236.43c-3.3 2.51-3.94 7.21-1.44 10.51 2.553 3.363 7.274 3.909 10.511 1.44 3.3-2.51 3.939-7.21 1.439-10.51-2.51-3.301-7.21-3.94-10.51-1.44z"/><path d="m365.87 215.899c-2.83 3.03-2.67 7.78.359 10.601 1.44 1.35 3.28 2.02 5.12 2.02 2 0 4-.8 5.48-2.38 2.83-3.02 2.66-7.77-.36-10.6-3.03-2.83-7.78-2.66-10.599.359z"/><path d="m410.899 297.55c1.535 2.328 4.457 3.798 7.7 3.19 3.695-.774 6.04-3.966 6.04-7.36 0-1.97-.81-3.91-2.2-5.3-2.966-2.974-7.75-2.867-10.609 0-2.371 2.299-3.036 6.266-.931 9.47z"/></g></svg>