<svg xmlns="http://www.w3.org/2000/svg" xmlns:xlink="http://www.w3.org/1999/xlink" width="25.953" height="30.04" viewBox="0 0 25.953 30.04">
  <defs>
    <clipPath id="clip-path">
      <rect id="Rectangle_4" data-name="Rectangle 4" width="25.953" height="30.04" fill="#00942c"/>
    </clipPath>
  </defs>
  <g id="Group_99" data-name="Group 99" opacity="0.5">
    <g id="Group_1" data-name="Group 1" clip-path="url(#clip-path)">
      <path id="Path_1" data-name="Path 1" d="M65.171,397.95c.068-.275.321-.343.513-.464.806-.507,1.613-1.013,2.432-1.5.625-.37,1.265-.6,1.88.04.222.232.43.1.635-.038a2.007,2.007,0,0,1,1.215-.345.853.853,0,0,1,.938.706c.083.506.343.533.753.438a4.188,4.188,0,0,1,.987-.117,1.114,1.114,0,0,1,1.181,1.562,4.264,4.264,0,0,1-.511,1.25,15.244,15.244,0,0,1-9.9,7.041,6.12,6.12,0,0,1-4.227-.62c-1.464-.795-2.972-1.507-4.437-2.3a2.208,2.208,0,0,0-2.657.108,1.826,1.826,0,0,1-.244.149c-1.192.672-1.464.52-1.464-.82,0-2.048.009-4.1-.007-6.143a.93.93,0,0,1,.578-.935,5.781,5.781,0,0,1,7.027.554,11.492,11.492,0,0,0,3.128,1.976,8.4,8.4,0,0,0,3.061.605,9.568,9.568,0,0,1,1.995.08c.476.095.972.2,1.067.785a1.287,1.287,0,0,1-.672,1.321,4.062,4.062,0,0,1-2.029.61A18.319,18.319,0,0,1,60,401.084a1.684,1.684,0,0,0-.477-.093,8.7,8.7,0,0,0,3.561,1.281,11.6,11.6,0,0,0,4.957-.037,3.963,3.963,0,0,0,1.3-.578,1.855,1.855,0,0,0-.592-3.3,10.978,10.978,0,0,0-2.7-.222c-.3-.012-.622.065-.881-.181" transform="translate(-49.824 -376.618)" fill="#00942c"/>
      <path id="Path_2" data-name="Path 2" d="M109.8,10.924a8.052,8.052,0,0,1-2.128,5.508,3.22,3.22,0,0,1-3.46.89,8.989,8.989,0,0,1-5.759-7.8,5.021,5.021,0,0,1,.135-1.058c.212-.9.383-.988,1.249-.686.559.195.349-.207.3-.4a10.646,10.646,0,0,1,.8-6.821c.084-.211.109-.52.382-.556s.371.264.487.457a10.593,10.593,0,0,0,3.852,3.632,7.874,7.874,0,0,1,4.072,5.959c.042.306.054.615.076.873" transform="translate(-93.858 0.001)" fill="#00942c"/>
      <path id="Path_3" data-name="Path 3" d="M308.056,242.726a5.525,5.525,0,0,0,2.731-.14c.47-.133.553.074.417.479a5.172,5.172,0,0,1-1.543,2.566c-.177.142-.454.255-.052.5.192.115.035.3-.089.411a5.87,5.87,0,0,1-4.321,1.705c-.454-.016-.574-.176-.275-.552a9.123,9.123,0,0,0,1.825-4.357c.117-.745.658-.605,1.307-.608" transform="translate(-290.554 -231.239)" fill="#00942c"/>
      <path id="Path_4" data-name="Path 4" d="M1.478,399.265c0,1.427,0,2.854,0,4.281,0,.482-.112.955-.692.992S0,404.167,0,403.65q0-4.352,0-8.7c0-.507.152-.93.746-.913s.726.458.728.952c.006,1.427,0,2.854,0,4.281" transform="translate(0 -375.664)" fill="#00942c"/>
    </g>
  </g>
</svg>
