<svg id="Capa_1" enable-background="new 0 0 512 512" height="512" viewBox="0 0 512 512" width="512" xmlns="http://www.w3.org/2000/svg"><path id="XMLID_654_" d="m466.633 394.829h-25.876c-7.175-80.726-71.662-145.213-152.387-152.387v-79.877c57.777-7.255 102.618-56.689 102.618-116.401v-45.064h-15.298c-51.533 0-95.412 33.399-111.13 79.687-21.442-28.264-55.378-46.555-93.51-46.555h-15.297v45.064c0 59.712 44.841 109.145 102.617 116.401v46.875c-45.033 4.765-87.128 30.066-113.437 57.001-6.676-1.957-13.642-2.966-20.603-2.974-21.567.036-41.743 9.674-55.441 26.144h-68.889v188.157h283.317l193.063-26.471.896-.123.875-.229c19.93-5.231 33.85-23.275 33.85-43.881-.001-25.015-20.353-45.367-45.368-45.367zm-56.016 0h-67.562c1.895-5.043 2.932-10.504 2.932-16.202 0-25.476-20.726-46.201-46.212-46.201-35.528 0-88.789-7.951-124.429-20.433 27.733-24.285 65.581-40.229 98.024-40.229 71.061.001 129.746 53.966 137.247 123.065zm-122.247-276.409c0-43.138 31.447-79.07 72.618-86.082v13.827c0 43.138-31.447 79.07-72.618 86.082zm-102.617-39.123v-13.827c41.171 7.011 72.617 42.944 72.617 86.082v11.932 1.895c-41.171-7.012-72.617-42.945-72.617-86.082zm285.505 375.554-189.988 26.049h-251.27v-128.157h54.529l4.441-6.781c7.926-12.1 21.163-19.338 35.411-19.362h.077c6.745 0 13.185 1.536 19.142 4.566 37.962 19.309 110.625 31.261 156.187 31.261 8.934 0 16.201 7.268 16.201 16.201 0 8.934-7.268 16.202-16.201 16.202h-79.292v30h246.14c8.473 0 15.367 6.894 15.367 15.367-.002 6.727-4.382 12.648-10.744 14.654z"/></svg>