<svg id="Group_96" data-name="Group 96" xmlns="http://www.w3.org/2000/svg" xmlns:xlink="http://www.w3.org/1999/xlink" width="30.17" height="30.04" viewBox="0 0 30.17 30.04">
  <defs>
    <clipPath id="clip-path">
      <rect id="Rectangle_27" data-name="Rectangle 27" width="30.17" height="30.04" fill="#9fd2ae"/>
    </clipPath>
  </defs>
  <g id="Group_24" data-name="Group 24" clip-path="url(#clip-path)">
    <path id="Path_65" data-name="Path 65" d="M98.729,49.575c-.075.364-.065.773-.389,1.037-.242.2-.37.432-.212.712.145.257.434.137.657.138q7.163.011,14.327,0c.306,0,.764.165.761-.4,0-.592-.487-.345-.773-.368-.994-.082-1.742-.624-1.518-1.4.31-1.065-.3-1.583-.845-2.224s-1.075-1.34-1.64-1.985a.805.805,0,0,1,.089-1.319.845.845,0,0,1,1.342.054c.507.548,1.032,1.079,1.626,1.7.63-1.534.127-3.284,1.684-4.249.1-.061.037-.392.037-.6,0-4.845,0-9.689.015-14.534,0-.548-.1-.788-.729-.784-4.81.025-9.62.019-14.43.009-.454,0-.7.082-.678.615.037,1,.007,1.992.018,2.989,0,.218-.089.509.283.552.967.113.733.711.5,1.278a5.526,5.526,0,0,0-.788,3.234c.047.245-.1.564.339.615.77.089.81.624.5,1.119-1,1.59-.812,3.346-.849,5.087-.014.672.167.872.847.856,1.064-.025,1.354.387,1.148,1.405q-.654,3.229-1.312,6.457m11.909-6.611c-.366.114-.352-.187-.353-.432,0-.488-.376-.413-.666-.414-2.441-.007-4.882.01-7.323-.015-.644-.007-.76.251-.639.816.466,2.181.924,4.365,1.354,6.553a.7.7,0,0,0,.838.663q2.114-.036,4.228,0c.5.009.743-.148.824-.664.122-.778.313-1.546.484-2.316.042-.187.057-.462.344-.4.247.053.254.279.207.5-.194.906-.364,1.818-.581,2.718a.9.9,0,0,1-.99.724c-.791-.012-1.581,0-2.372,0s-1.582-.014-2.372,0a1.017,1.017,0,0,1-1.133-.943c-.472-2.321-.963-4.637-1.435-6.958-.168-.828.208-1.248,1.04-1.261a19.6,19.6,0,0,1,2.061.01c.72.065.908-.241.84-.888a5.378,5.378,0,0,1,0-1.133c.091-.842.059-1.468-1.078-1.564-.727-.061-1.9-2.144-1.814-2.91a.6.6,0,0,1,.708-.577,6.013,6.013,0,0,0,1.125.1c.349-.041.957.561,1.02-.246.041-.524.433-1.325-.731-1.4-.915-.056-2.22-2.035-2.126-3a.582.582,0,0,1,.708-.57c.981.109,2.023.029,2.82.78.236.222.373.3.646.014.8-.833,1.888-.725,2.9-.788a.548.548,0,0,1,.587.819c-.539,1.16-.673,2.647-2.438,2.848-.717.082-.262.849-.325,1.291-.083.58.379.26.63.285.688.069,1.549-.542,2.031.141.5.714-.323,1.374-.534,2.063a1.579,1.579,0,0,1-1.286,1.209c-.648.079-.894.255-.883.979.038,2.5,0,2.506,2.5,2.52.637,0,1.287-.029,1.427.814.039.235.021.537-.244.619m-9.33-15.88q4.691.073,9.384,0c.837-.013,1.067.26,1.048,1.063-.047,2.027-.016,4.056-.016,6.084,0,2.131,0,4.263-.006,6.394,0,.215.118.566-.214.6-.411.036-.313-.349-.341-.6a4.089,4.089,0,0,1-.005-.412,3.71,3.71,0,0,0-.06-1.524c-.264-.506-.931-.134-1.415-.21-.211-.033-.464-.04-.476-.284-.018-.368.306-.279.529-.3,1.422-.124,1.422-.123,1.422-1.591,0-.722-.042-1.447.01-2.165.045-.627-.143-.905-.792-.789a1.412,1.412,0,0,1-.412,0c-.281-.034-.746.14-.748-.3,0-.452.484-.318.74-.277.988.158,1.322-.189,1.224-1.2a24.522,24.522,0,0,1-.012-3.195c.019-.543-.158-.717-.7-.7-1.133.037-2.271.06-3.4-.005-.707-.041-.933.2-.839.864a3.533,3.533,0,0,1,0,.721c-.012.173-.061.358-.283.351s-.228-.2-.285-.364c-.176-.5.394-1.261-.367-1.519a4.6,4.6,0,0,0-1.639-.031c-.947.048-2.209-.417-2.751.192-.467.525-.138,1.761-.158,2.683-.006.275,0,.55,0,.825,0,1.38,0,1.376,1.347,1.477.247.018.657-.093.628.3-.027.36-.439.282-.677.243-1.1-.183-1.46.285-1.308,1.335a9.49,9.49,0,0,1,.01,1.339,4.037,4.037,0,0,0,.048,1.628c.272.551.983.16,1.494.248.208.036.455.063.45.312-.006.292-.286.219-.476.238-1.508.154-1.508.153-1.517,1.7,0,.206,0,.413-.005.619-.006.179-.054.376-.25.394-.263.024-.325-.19-.331-.407-.007-.275,0-.55,0-.825,0-3.919.025-7.838-.019-11.757-.01-.913.277-1.178,1.177-1.164" transform="translate(-90.431 -23.398)" fill="#9fd2ae"/>
    <path id="Path_66" data-name="Path 66" d="M6.876,251.257c.1.548.319.742.874.729,1.406-.033,2.813-.028,4.219,0a.7.7,0,0,0,.826-.667c.429-2.186.888-4.366,1.358-6.543.139-.642-.064-.871-.72-.851-1.165.035-2.333.01-3.5.01-1.235,0-2.47.011-3.705-.005-.562-.008-.821.13-.681.778q.707,3.267,1.327,6.553" transform="translate(-5.085 -225.062)" fill="#9fd2ae"/>
    <path id="Path_67" data-name="Path 67" d="M282.916,240.013c-.815-.032-1.16.32-1.3,1.1-.344,1.958-.749,3.906-1.133,5.857-.168.853.2,1.226,1.042,1.22.995-.007,1.99,0,2.985,0s1.99-.017,2.985,0c.908.019,1.241-.369,1.061-1.273-.4-1.984-.762-3.975-1.127-5.965a.988.988,0,0,0-1.12-.938c-1.132.025-2.266.039-3.4,0m1.878,1.938a6.665,6.665,0,0,1,1.327,2.446,1.94,1.94,0,0,1-.984,1.845,1.428,1.428,0,0,1-1.631-.125,1.7,1.7,0,0,1-.735-1.788,6.31,6.31,0,0,1,1.146-2.268.524.524,0,0,1,.877-.109" transform="translate(-258.764 -221.455)" fill="#9fd2ae"/>
    <path id="Path_68" data-name="Path 68" d="M29.6,370.452a5.072,5.072,0,0,0-.821-.031q-6.852,0-13.7,0l-13.6,0a7.432,7.432,0,0,0-.823.016A.65.65,0,0,0,0,371.1a.644.644,0,0,0,.617.694,4.76,4.76,0,0,0,.72.02H28.849a4.766,4.766,0,0,0,.719-.025.641.641,0,0,0,.6-.706.629.629,0,0,0-.567-.634" transform="translate(-0.001 -341.782)" fill="#9fd2ae"/>
    <path id="Path_69" data-name="Path 69" d="M83.294,1.42q3.911,0,7.822,0,4.065,0,8.131,0c.566,0,1.107-.077,1.038-.794S99.591,0,99.083,0q-7.925,0-15.85,0c-.559,0-1.224-.063-1.195.734s.711.684,1.255.684" transform="translate(-75.695 0)" fill="#9fd2ae"/>
    <path id="Path_70" data-name="Path 70" d="M23.492,155a.945.945,0,0,0,.911-.574,6.147,6.147,0,0,0,.749-1.9c-1.154.178-2.433-.127-2.936,1.383-.111.334-.464.4-.589.022-.5-1.506-1.8-1.191-3.041-1.434.148.412.218.64.31.858.407.966.759,1.971,2.19,1.581.426-.116.4.341.4.637,0,.96,0,1.921,0,2.881,0,.279-.031.545.392.553s.528-.169.518-.552c-.02-.72.015-1.441-.011-2.161-.028-.783-.113-1.538,1.1-1.3" transform="translate(-17.15 -140.706)" fill="#9fd2ae"/>
    <path id="Path_71" data-name="Path 71" d="M20.6,89.175c.686-.164.764.14.748.679-.019.618-.005,1.236,0,1.855,0,.3.131.6.42.607s.448-.307.466-.575a13.843,13.843,0,0,0,.012-1.647c-.033-.637.025-1.077.875-.906a1.133,1.133,0,0,0,1.24-.737c.252-.519.451-1.063.711-1.689-1.242.1-2.486-.141-3,1.345-.117.336-.457.349-.594-.021-.538-1.459-1.808-1.173-3.041-1.355.256.618.448,1.127.676,1.62a1.263,1.263,0,0,0,1.493.823" transform="translate(-17.01 -80.026)" fill="#9fd2ae"/>
    <path id="Path_72" data-name="Path 72" d="M313.069,207.81c.083,1.12,1.012.307,1.5.64.405-.385,1.33.525,1.392-.621a1.444,1.444,0,1,0-2.887-.019" transform="translate(-288.862 -190.389)" fill="#9fd2ae"/>
    <path id="Path_73" data-name="Path 73" d="M246.178,267.493c-.18-.179-.346-.332-.607-.108-.239.205-.21.379-.022.6.744.881,1.477,1.772,2.294,2.758.1-.666.486-1.165-.056-1.664s-1.076-1.055-1.61-1.587" transform="translate(-226.428 -246.61)" fill="#9fd2ae"/>
    <path id="Path_74" data-name="Path 74" d="M162.941,153.336a.921.921,0,0,0,.943-.521,6.161,6.161,0,0,0,.822-1.907c-1.224.107-2.51-.121-3.02,1.417-.1.293-.458.22-.549-.051-.5-1.5-1.791-1.21-2.994-1.388.142.372.249.656.359.939.369.947.793,1.767,2.082,1.474.524-.119.453.386.457.71.012.927.005,1.854.006,2.781,0,.286,0,.55.407.571.475.025.47-.277.468-.6,0-.755.006-1.511-.005-2.266-.011-.7-.118-1.435,1.024-1.156" transform="translate(-145.917 -139.221)" fill="#9fd2ae"/>
    <path id="Path_75" data-name="Path 75" d="M161.221,87.67q.007.928,0,1.855c0,.295.072.63.374.637.335.008.482-.324.491-.65.014-.549.021-1.1.006-1.649s.028-.954.781-.784a1.1,1.1,0,0,0,1.221-.587c.31-.56.554-1.158.884-1.862-1.257.15-2.525-.165-3.045,1.329-.114.329-.5.393-.617.058-.53-1.468-1.774-1.236-2.983-1.373.116.31.2.531.281.75.385.989.742,1.978,2.171,1.63.418-.1.43.335.432.647" transform="translate(-146.096 -78.087)" fill="#9fd2ae"/>
    <path id="Path_76" data-name="Path 76" d="M318.162,272.885a.826.826,0,0,0,1.123-.011,1.23,1.23,0,0,0,.407-1.555c-.254-.578-.6-1.117-.974-1.808-.377.694-.717,1.242-.979,1.824a1.226,1.226,0,0,0,.423,1.549" transform="translate(-293.06 -248.675)" fill="#9fd2ae"/>
  </g>
</svg>
