<svg xmlns="http://www.w3.org/2000/svg" width="21.753" height="21.753" viewBox="0 0 21.753 21.753">
  <path id="Icon_awesome-whatsapp" data-name="Icon awesome-whatsapp" d="M18.5,5.411A10.783,10.783,0,0,0,1.53,18.419L0,24l5.715-1.5a10.747,10.747,0,0,0,5.152,1.311h0a10.883,10.883,0,0,0,10.882-10.78A10.822,10.822,0,0,0,18.5,5.411ZM10.872,22A8.944,8.944,0,0,1,6.308,20.75l-.325-.194-3.389.889.9-3.307-.214-.34a8.977,8.977,0,1,1,16.65-4.763A9.06,9.06,0,0,1,10.872,22Zm4.914-6.711c-.267-.136-1.593-.787-1.84-.874s-.427-.136-.607.136-.694.874-.855,1.059-.316.2-.583.068a7.332,7.332,0,0,1-3.666-3.2c-.277-.476.277-.442.791-1.471A.5.5,0,0,0,9,10.529c-.068-.136-.607-1.462-.83-2s-.442-.452-.607-.461-.335-.01-.515-.01a1,1,0,0,0-.719.335,3.027,3.027,0,0,0-.942,2.248,5.277,5.277,0,0,0,1.1,2.787,12.036,12.036,0,0,0,4.6,4.069,5.271,5.271,0,0,0,3.234.675A2.759,2.759,0,0,0,16.14,16.89a2.253,2.253,0,0,0,.155-1.282C16.233,15.487,16.053,15.419,15.786,15.287Z" transform="translate(0 -2.25)" fill="#fff"/>
</svg>
